<?xml version="1.0" encoding="UTF-8"?>
<!DOCTYPE svg PUBLIC "-//W3C//DTD SVG 1.1//EN" "http://www.w3.org/Graphics/SVG/1.1/DTD/svg11.dtd">
<svg xmlns="http://www.w3.org/2000/svg" version="1.1" width="16px" height="16px" style="shape-rendering:geometricPrecision; text-rendering:geometricPrecision; image-rendering:optimizeQuality; fill-rule:evenodd; clip-rule:evenodd" xmlns:xlink="http://www.w3.org/1999/xlink">
<g><path style="opacity:0.936" fill="#a9dcff" d="M 3.5,-0.5 C 6.16667,-0.5 8.83333,-0.5 11.5,-0.5C 13.2294,0.236209 14.2294,1.56954 14.5,3.5C 14.5,3.83333 14.5,4.16667 14.5,4.5C 10.1146,4.52286 5.78122,4.68952 1.5,5C 2.33188,6.90883 1.99854,8.74216 0.5,10.5C 0.166667,10.5 -0.166667,10.5 -0.5,10.5C -0.5,8.16667 -0.5,5.83333 -0.5,3.5C 0.5,1.83333 1.83333,0.5 3.5,-0.5 Z"/></g>
<g><path style="opacity:1" fill="#7ea2ff" d="M 14.5,4.5 C 13.5244,5.81486 12.5244,7.14819 11.5,8.5C 12.0253,9.19238 12.6919,9.69238 13.5,10C 11.8008,10.3932 10.3008,9.89324 9,8.5C 7.35418,10.1408 6.35418,9.8075 6,7.5C 5.07182,10.0352 3.23848,11.0352 0.5,10.5C 1.99854,8.74216 2.33188,6.90883 1.5,5C 5.78122,4.68952 10.1146,4.52286 14.5,4.5 Z"/></g>
<g><path style="opacity:0.95" fill="#a8dbff" d="M 14.5,3.5 C 14.8333,3.5 15.1667,3.5 15.5,3.5C 15.5,6.16667 15.5,8.83333 15.5,11.5C 14.5,13.1667 13.1667,14.5 11.5,15.5C 8.83333,15.5 6.16667,15.5 3.5,15.5C 1.83333,14.5 0.5,13.1667 -0.5,11.5C -0.5,11.1667 -0.5,10.8333 -0.5,10.5C -0.166667,10.5 0.166667,10.5 0.5,10.5C 3.23848,11.0352 5.07182,10.0352 6,7.5C 6.35418,9.8075 7.35418,10.1408 9,8.5C 10.3008,9.89324 11.8008,10.3932 13.5,10C 12.6919,9.69238 12.0253,9.19238 11.5,8.5C 12.5244,7.14819 13.5244,5.81486 14.5,4.5C 14.5,4.16667 14.5,3.83333 14.5,3.5 Z"/></g>
</svg>
