<?xml version="1.0" encoding="UTF-8"?>
<!DOCTYPE svg PUBLIC "-//W3C//DTD SVG 1.1//EN" "http://www.w3.org/Graphics/SVG/1.1/DTD/svg11.dtd">
<svg xmlns="http://www.w3.org/2000/svg" version="1.1" width="32px" height="32px" style="shape-rendering:geometricPrecision; text-rendering:geometricPrecision; image-rendering:optimizeQuality; fill-rule:evenodd; clip-rule:evenodd" xmlns:xlink="http://www.w3.org/1999/xlink">
<g><path style="opacity:0.969" fill="#a8dbff" d="M 9.5,-0.5 C 13.5,-0.5 17.5,-0.5 21.5,-0.5C 25.8333,1.83333 29.1667,5.16667 31.5,9.5C 31.5,13.5 31.5,17.5 31.5,21.5C 29.1667,25.8333 25.8333,29.1667 21.5,31.5C 17.5,31.5 13.5,31.5 9.5,31.5C 5.16667,29.1667 1.83333,25.8333 -0.5,21.5C -0.5,17.5 -0.5,13.5 -0.5,9.5C 1.83333,5.16667 5.16667,1.83333 9.5,-0.5 Z"/></g>
<g><path style="opacity:1" fill="#333fff" d="M 10.5,10.5 C 10.5,10.8333 10.5,11.1667 10.5,11.5C 8.93819,11.7329 7.60486,12.3995 6.5,13.5C 6.42265,12.2502 5.75598,11.4169 4.5,11C 6.4727,10.5045 8.4727,10.3379 10.5,10.5 Z"/></g>
<g><path style="opacity:1" fill="#a4d6ff" d="M 10.5,11.5 C 11.3506,13.7036 10.3506,15.037 7.5,15.5C 6.70245,15.0431 6.36912,14.3764 6.5,13.5C 7.60486,12.3995 8.93819,11.7329 10.5,11.5 Z"/></g>
<g><path style="opacity:1" fill="#5566ff" d="M 10.5,10.5 C 14.3873,10.6993 18.3873,10.8659 22.5,11C 23.1258,11.7504 23.6258,12.5838 24,13.5C 25.1133,11.6707 26.6133,10.8374 28.5,11C 25.93,13.0673 23.93,15.5673 22.5,18.5C 24.4233,19.3078 26.4233,19.8078 28.5,20C 25.8333,20.6667 23.1667,20.6667 20.5,20C 21.1667,18.6667 21.8333,17.3333 22.5,16C 21.9056,15.5357 21.2389,15.369 20.5,15.5C 23.1247,14.198 23.1247,12.8647 20.5,11.5C 19.1482,12.5244 17.8149,13.5244 16.5,14.5C 17.087,13.2334 17.087,12.2334 16.5,11.5C 13.8463,12.836 11.513,14.5026 9.5,16.5C 7.83333,16.5 6.16667,16.5 4.5,16.5C 4.42702,14.9731 5.09368,13.9731 6.5,13.5C 6.36912,14.3764 6.70245,15.0431 7.5,15.5C 10.3506,15.037 11.3506,13.7036 10.5,11.5C 10.5,11.1667 10.5,10.8333 10.5,10.5 Z"/></g>
<g><path style="opacity:1" fill="#a4d5ff" d="M 20.5,15.5 C 18.901,15.7678 17.5676,15.4345 16.5,14.5C 17.8149,13.5244 19.1482,12.5244 20.5,11.5C 23.1247,12.8647 23.1247,14.198 20.5,15.5 Z"/></g>
<g><path style="opacity:1" fill="#576bff" d="M 16.5,14.5 C 17.5676,15.4345 18.901,15.7678 20.5,15.5C 17.4453,15.9339 15.2786,17.6006 14,20.5C 13.4585,17.9175 14.2918,15.9175 16.5,14.5 Z"/></g>
<g><path style="opacity:1" fill="#a5d6ff" d="M 4.5,16.5 C 6.16667,16.5 7.83333,16.5 9.5,16.5C 9.44312,17.609 9.10978,18.609 8.5,19.5C 7.16667,19.5 5.83333,19.5 4.5,19.5C 4.5,18.5 4.5,17.5 4.5,16.5 Z"/></g>
<g><path style="opacity:1" fill="#4857ff" d="M 9.5,16.5 C 12.0478,18.0135 11.7145,19.0135 8.5,19.5C 9.10978,18.609 9.44312,17.609 9.5,16.5 Z"/></g>
<g><path style="opacity:1" fill="#495cff" d="M 4.5,16.5 C 4.5,17.5 4.5,18.5 4.5,19.5C 5.83333,19.5 7.16667,19.5 8.5,19.5C 6.71159,20.6225 4.71159,20.7891 2.5,20C 3.0848,18.6976 3.75147,17.531 4.5,16.5 Z"/></g>
</svg>
